<?xml version="1.0" encoding="UTF-8" standalone="no"?>
<!-- Created with Inkscape (http://www.inkscape.org/) -->

<svg
   width="210mm"
   height="297mm"
   viewBox="0 0 210 297"
   version="1.1"
   id="svg1"
   xml:space="preserve"
   inkscape:version="1.4 (86a8ad7, 2024-10-11)"
   sodipodi:docname="logo.svg"
   xmlns:inkscape="http://www.inkscape.org/namespaces/inkscape"
   xmlns:sodipodi="http://sodipodi.sourceforge.net/DTD/sodipodi-0.dtd"
   xmlns="http://www.w3.org/2000/svg"
   xmlns:svg="http://www.w3.org/2000/svg"><sodipodi:namedview
     id="namedview1"
     pagecolor="#ffffff"
     bordercolor="#000000"
     borderopacity="0.25"
     inkscape:showpageshadow="2"
     inkscape:pageopacity="0.0"
     inkscape:pagecheckerboard="0"
     inkscape:deskcolor="#d1d1d1"
     inkscape:document-units="mm"
     inkscape:zoom="0.68862935"
     inkscape:cx="397.16576"
     inkscape:cy="561.25984"
     inkscape:window-width="1920"
     inkscape:window-height="991"
     inkscape:window-x="-9"
     inkscape:window-y="-9"
     inkscape:window-maximized="1"
     inkscape:current-layer="layer1" /><defs
     id="defs1" /><g
     inkscape:label="Слой 1"
     inkscape:groupmode="layer"
     id="layer1"><g
       style="fill:none"
       id="g1"
       transform="matrix(8.8194444,0,0,8.8194444,-0.79374947,47.789921)"><path
         fill-rule="evenodd"
         clip-rule="evenodd"
         d="m 10.5067,1.50804 c 0.1817,-0.20909 0.4639,-0.30099 0.7339,-0.239 3.6088,0.82851 5.4329,4.78313 5.0039,8.32126 -0.1667,1.3754 -0.5787,2.4536 -1.1853,3.3115 -0.0037,0.0053 -0.0075,0.0105 -0.0112,0.0157 0.1378,-0.0677 0.2649,-0.1408 0.3839,-0.218 0.5919,-0.3842 1.0264,-0.8912 1.592,-1.5514 0.0684,-0.0798 0.1387,-0.1618 0.2114,-0.2461 0.1634,-0.1895 0.4106,-0.2851 0.6589,-0.2547 0.2484,0.0303 0.4653,0.1826 0.5783,0.4058 0.4975,0.9832 0.7775,2.0948 0.7775,3.2695 0,4.0041 -3.2459,7.25 -7.25,7.25 -4.00406,0 -7.25,-3.2459 -7.25,-7.25 0,-2.537 1.30371,-4.7691 3.27431,-6.06354 L 8.09187,8.19098 C 8.12658,8.15601 8.16464,8.12454 8.20552,8.09703 9.07138,7.5144 9.69312,7.03786 10.1117,6.47743 10.5071,5.94801 10.75,5.3022 10.75,4.32264 10.75,3.59736 10.6161,2.90512 10.3723,2.26809 10.2733,2.00936 10.3249,1.71713 10.5067,1.50804 Z m 1.6645,1.74277 c 0.0519,0.34998 0.0788,0.70791 0.0788,1.07183 0,1.26842 -0.3277,2.23731 -0.9365,3.05241 C 10.7417,8.14054 9.95028,8.72847 9.10466,9.2999 L 9.03236,9.37275 C 8.99362,9.41179 8.95071,9.44644 8.90439,9.4761 7.30648,10.4991 6.25,12.2877 6.25,14.3226 c 0,3.1757 2.57436,5.75 5.75,5.75 3.1756,0 5.75,-2.5743 5.75,-5.75 0,-0.5198 -0.0688,-1.0229 -0.1977,-1.5009 -0.3802,0.4117 -0.7999,0.809 -1.3038,1.136 -0.9232,0.5992 -2.0786,0.9413 -3.7485,0.9413 -0.3423,0 -0.6411,-0.2317 -0.7264,-0.5632 -0.0852,-0.3314 0.0647,-0.6786 0.3645,-0.8437 0.6788,-0.374 1.2542,-0.8311 1.6964,-1.4564 0.4412,-0.6239 0.7792,-1.457 0.921,-2.62595 C 15.0623,6.879 14.0149,4.38107 12.1712,3.25081 Z"
         fill="#000000"
         id="path1" /></g><g
       style="fill:none"
       id="g2"
       transform="matrix(8.8194444,0,0,8.8194444,-0.79374947,47.789921)"><path
         fill-rule="evenodd"
         clip-rule="evenodd"
         d="m 12.423551,2.9021136 c 0.1817,-0.20909 -1.147997,-0.9980268 -1.182951,-1.6330736 3.6088,0.82851 5.4329,4.78313 5.0039,8.32126 -0.1667,1.3754 -0.5787,2.4536 -1.1853,3.3115 -0.0037,0.0053 -0.0075,0.0105 -0.0112,0.0157 0.1378,-0.0677 0.2649,-0.1408 0.3839,-0.218 0.5919,-0.3842 1.0264,-0.8912 1.592,-1.5514 0.0684,-0.0798 0.1387,-0.1618 0.2114,-0.2461 0.1634,-0.1895 0.4106,-0.2851 0.6589,-0.2547 0.2484,0.0303 0.4653,0.1826 0.5783,0.4058 0.4975,0.9832 0.7775,2.0948 0.7775,3.2695 0,4.0041 -3.2459,7.25 -7.25,7.25 -4.00406,0 -7.25,-3.2459 -7.25,-7.25 0,-2.537 1.30371,-4.7691 3.27431,-6.06354 L 8.09187,8.19098 C 8.12658,8.15601 8.16464,8.12454 8.20552,8.09703 9.07138,7.5144 9.69312,7.03786 10.1117,6.47743 10.5071,5.94801 10.75,5.3022 10.75,4.32264 c 0,-0.72528 0.519572,-1.0254368 0.275772,-1.6624668 -0.099,-0.25873 1.215979,0.4510304 1.397779,0.2419404 z M 12.1712,3.25081 c 0.0519,0.34998 0.0788,0.70791 0.0788,1.07183 0,1.26842 -0.3277,2.23731 -0.9365,3.05241 C 10.7417,8.14054 9.95028,8.72847 9.10466,9.2999 L 9.03236,9.37275 C 8.99362,9.41179 8.95071,9.44644 8.90439,9.4761 7.30648,10.4991 6.25,12.2877 6.25,14.3226 c 0,3.1757 2.57436,5.75 5.75,5.75 3.1756,0 5.75,-2.5743 5.75,-5.75 0,-0.5198 -0.0688,-1.0229 -0.1977,-1.5009 -0.3802,0.4117 -0.7999,0.809 -1.3038,1.136 -0.9232,0.5992 -2.0786,0.9413 -3.7485,0.9413 -0.3423,0 -0.6411,-0.2317 -0.7264,-0.5632 -0.0852,-0.3314 0.0647,-0.6786 0.3645,-0.8437 0.6788,-0.374 1.2542,-0.8311 1.6964,-1.4564 0.4412,-0.6239 0.7792,-1.457 0.921,-2.62595 C 15.0623,6.879 14.0149,4.38107 12.1712,3.25081 Z"
         fill="#000000"
         id="path1-4"
         sodipodi:nodetypes="ccccccccccsssccccscccsccccsssccsccccc" /></g><g
       style="fill:#000000"
       id="g3"
       transform="matrix(8.8194444,0,0,8.8194444,1.1275408,24.129652)"><path
         d="M 12,7 V 21"
         stroke="#33363f"
         stroke-width="2"
         stroke-linecap="round"
         stroke-linejoin="round"
         id="path1-5"
         style="fill:#000000" /><path
         d="m 11.665906,2.0234212 -3.8930404,5.4502 c -0.37821,0.52949 2.9e-4,1.26499 0.65099,1.26499 h 6.8908504 c 0.6507,0 1.0292,-0.7355 0.651,-1.26499 l -3.893,-5.4502 c -0.0997,-0.13959 -0.3071,-0.13959 -0.4068,0 z"
         fill="#33363f"
         id="path2"
         style="fill:#000000" /></g><path
       style="fill:#000000;stroke:#000000;stroke-width:1.45216"
       d="m 389.77032,819.99675 c -8.31956,-4.39108 -15.16402,-13.47443 -17.15756,-22.76995 -1.10268,-5.14164 -1.58588,-67.98909 -1.58588,-206.26915 V 392.0832 h 32.6736 32.6736 v 203.35067 203.35069 l -3.47344,6.84947 c -4.02879,7.94461 -6.58119,10.44308 -14.98375,14.66718 -8.43539,4.2406 -19.76751,4.11802 -28.14657,-0.30446 z"
       id="path3"
       transform="scale(0.26458333)" /><path
       style="fill:#000000;stroke:#000000;stroke-width:1.45216"
       d="m 371.02688,387.00064 v -3.6304 h 32.6736 32.6736 v 3.6304 3.6304 h -32.6736 -32.6736 z"
       id="path4"
       transform="scale(0.26458333)" /></g></svg>
